<svg xmlns="http://www.w3.org/2000/svg" width="24" height="24" viewBox="0 0 24 24">
  <path d="M17.05 20.28c-.98.95-2.05.8-3.1.4-1.09-.41-2.09-.42-3.23 0-1.44.56-2.2.4-3.1-.41-4.99-5.29-4.13-13.4 1.74-13.7 1.38.06 2.32.9 3.07.94.93-.15 2.28-1.01 3.48-.87.59.03 2.25.24 3.32 1.82-3.26 2.14-2.13 6.07 1.03 7.25-.84 2.4-2.13 4.6-3.21 5.57zm-4.88-17.76c.05-2.18 1.79-3.53 1.88-3.59-1.13-1.64-2.89-1.87-3.5-1.89-1.38-.14-2.78.8-3.39.8-.67 0-1.62-.8-2.77-.77-1.39.02-2.72.84-3.42 2.08-1.56 2.67-.39 6.54 1.04 8.7.76 1.05 1.62 2.21 2.74 2.17 1.11-.05 1.51-.7 2.87-.7 1.31 0 1.75.7 2.9.66 1.21-.02 1.96-1.07 2.67-2.14.54-.79.95-1.67 1.15-2.57-2.13-.95-2.35-4.59-.17-5.75z"/>
</svg>